<?xml version="1.0" encoding="UTF-8" standalone="no"?>
<!-- Generator: Adobe Illustrator 10.0, SVG Export Plug-In . SVG Version: 3.0.0 Build 77)  -->
<svg xmlns:i="http://ns.adobe.com/AdobeIllustrator/10.0/" xmlns:dc="http://purl.org/dc/elements/1.1/" xmlns:cc="http://web.resource.org/cc/" xmlns:rdf="http://www.w3.org/1999/02/22-rdf-syntax-ns#" xmlns:svg="http://www.w3.org/2000/svg" xmlns="http://www.w3.org/2000/svg" xmlns:sodipodi="http://sodipodi.sourceforge.net/DTD/sodipodi-0.dtd" xmlns:inkscape="http://www.inkscape.org/namespaces/inkscape" enable-background="new 0 0 361.168 331.604" height="331.604" i:pageBounds="0 792 612 0" i:rulerOrigin="0 0" i:viewOrigin="125.0005 561" overflow="visible" space="preserve" viewBox="0 0 361.168 331.604" width="361.168" id="svg2" sodipodi:version="0.32" inkscape:version="0.45.1" sodipodi:docname="Gerald_G_Police_man.svg" sodipodi:docbase="/home/melissa/Desktop" inkscape:output_extension="org.inkscape.output.svg.inkscape">
  <defs id="defs64"/>
  <sodipodi:namedview inkscape:window-height="948" inkscape:window-width="1280" inkscape:pageshadow="2" inkscape:pageopacity="0.0" guidetolerance="10.0" gridtolerance="10.0" objecttolerance="10.0" borderopacity="1.0" bordercolor="#666666" pagecolor="#ffffff" id="base" showguides="true" inkscape:guide-bbox="true" inkscape:zoom="1.5033003" inkscape:cx="104.36062" inkscape:cy="208.25421" inkscape:window-x="0" inkscape:window-y="0" inkscape:current-layer="svg2">
    <sodipodi:guide orientation="horizontal" position="214.8606" id="guide14938"/>
  </sodipodi:namedview>
  <path clip-rule="evenodd" d="M 115.848,50.706 C 113.292,49.734 111.276,49.878 109.656,51.282 C 107.964,52.614 107.208,54.774 106.272,58.878 C 105.3,63.018 103.032,71.046 104.04,75.762 C 105.084,80.442 107.676,83.826 112.212,86.49 C 113.04,94.626 112.608,100.17 111.06,103.662 C 109.368,107.01 107.028,107.118 102.636,106.758 C 98.1,106.29 92.268,104.634 84.6,101.394 C 86.4,95.13 87.192,90.054 87.12,85.626 C 86.976,81.234 83.628,78.606 84.024,75.222 C 84.276,71.694 88.416,68.31 89.1,65.07 C 89.676,61.686 86.76,58.77 87.984,55.494 C 89.316,52.074 95.688,48.366 96.408,45.342 C 96.876,42.21 93.852,38.43 91.08,37.458 C 88.164,36.414 83.52,37.35 79.524,39.438 C 75.528,41.454 71.352,44.838 67.14,49.59 C 68.724,39.15 68.724,31.41 67.428,25.938 C 66.06,20.466 61.668,18.054 58.968,16.902 C 56.196,15.714 53.568,16.182 51.084,18.594 C 51.372,14.85 50.58,12.366 48.276,10.998 C 45.936,9.558 39.96,9.558 37.548,10.422 C 35.1,11.25 33.876,13.086 33.876,16.074 C 29.196,15.174 25.956,15.174 23.472,16.074 C 21.132,16.974 19.692,18.702 19.548,21.402 C 15.12,20.25 11.772,20.682 9.108,22.554 C 6.48,24.462 4.968,24.785 3.744,32.67 C 2.412,40.518 1.62,57.87 1.224,69.03 C 0.72,80.046 -1.584,90.126 1.512,98.586 C 4.716,107.046 10.728,113.67 20.088,119.142 C 20.088,125.622 23.148,132.426 29.664,139.986 C 36.144,147.582 45.684,155.286 58.68,163.926 C 53.856,173.754 49.86,186.102 46.836,201.942 C 43.668,217.747 41.688,235.963 40.356,257.706 C 42.48,259.11 45.396,260.479 49.104,261.954 C 52.812,263.431 57.096,264.835 62.352,266.454 C 59.688,271.099 57.672,277.11 56.16,284.491 C 54.612,291.942 53.712,300.475 53.316,310.663 C 42.66,314.3 35.82,317.538 32.22,320.526 C 28.584,323.407 22.896,327.151 32.22,328.411 C 41.796,329.563 74.952,329.239 88.236,327.835 C 101.16,326.358 108.396,323.694 109.944,319.698 C 109.728,321.571 110.52,322.831 112.464,323.622 C 114.336,324.27 117.252,324.091 121.212,324.198 C 125.208,324.235 132.588,325.999 135.864,324.198 C 138.996,322.362 137.988,319.446 139.788,313.219 C 141.444,306.811 144.576,292.842 146.268,286.434 C 147.96,279.954 149.184,276.067 149.94,274.625 L 196.129,274.914 C 197.172,275.635 198.576,279.521 200.629,286.723 C 202.608,293.887 205.236,311.346 207.973,317.719 C 210.6,323.803 213.229,322.578 216.397,323.91 C 219.458,325.277 222.84,325.709 226.26,325.601 C 229.573,325.314 232.957,324.376 236.412,322.505 C 234.973,323.081 238.213,324.161 246.527,325.601 C 254.843,326.97 272.195,330.173 285.804,331.037 C 299.411,331.902 319.824,331.793 327.06,330.57 C 333.9,329.131 331.415,325.709 327.527,323.082 C 323.603,320.453 315.9,317.537 303.984,314.621 C 302.4,305.299 300.671,297.307 298.656,289.818 C 296.641,282.329 294.336,276.029 291.888,270.377 C 295.74,269.262 299.591,267.857 303.984,266.166 C 308.267,264.402 312.732,262.387 317.519,259.975 L 311.614,213.21 C 323.891,207.091 333.934,199.53 342.034,190.388 C 350.098,181.136 357.587,167.527 359.782,158.311 C 361.8,149.059 363.202,142.867 354.419,135.271 C 345.384,127.495 325.259,117.811 306.827,112.447 C 288.323,107.119 267.946,104.167 244.583,103.447 L 243.179,89.299 C 246.419,88.435 248.615,85.843 249.911,81.127 C 251.136,76.303 251.278,66.295 250.774,61.399 C 250.163,56.539 248.795,53.587 246.526,52.399 C 247.03,49.411 238.571,10.387 224.026,6.211 C 209.338,1.927 191.376,-0.737 174.167,0.019 C 156.887,0.775 141.46417,2.4452687 128.10817,6.9092687 C 114.75217,11.301269 113.328,44.046 115.848,50.706 z " i:knockout="Off" stroke-miterlimit="10" id="path9" style="fill-rule:evenodd;stroke:#949494;stroke-width:0.036;stroke-miterlimit:10;stroke-opacity:1;fill:#000000;fill-opacity:1" sodipodi:nodetypes="cccccccccccccccccccccccccccccccccsccccccccccccccccccccccccsccccccccccccccccc"/>
  <path style="fill:#ffffff;fill-opacity:1;fill-rule:evenodd;stroke:#323232;stroke-width:3;stroke-linecap:round;stroke-linejoin:round;stroke-miterlimit:4;stroke-dasharray:none;stroke-opacity:1" d="M 227.11482,133.55733 C 227.11482,133.55733 188.54558,161.00105 174.08942,185.94387 C 174.08942,185.94387 152.36817,149.52884 128.73034,130.36303" id="path9082" sodipodi:nodetypes="ccs"/>
  <path style="fill:#000000;fill-opacity:1;fill-rule:evenodd;stroke:none;stroke-width:1px;stroke-linecap:butt;stroke-linejoin:miter;stroke-opacity:1" d="M 136.71609,138.34878 C 136.71609,138.34878 194.90026,136.62839 214.33761,142.18194 C 210.82389,149.84827 186.5472,148.88998 186.5472,148.88998 C 186.5472,148.88998 191.40916,155.92489 189.10263,156.87573 C 181.8038,159.88459 185.9222,186.06043 183.49764,186.78859 C 181.07309,187.51675 169.85165,188.48254 167.79901,188.11468 C 165.74637,187.74681 172.33922,161.1698 164.50651,158.79231 C 160.28083,157.50967 163.47785,151.90165 166.47119,149.17422 C 162.7565,149.00222 153.20418,147.13282 150.29453,146.91143 C 147.38487,146.69004 141.51637,141.85564 138.31324,142.50137 L 136.71609,138.34878 z " id="path11023" sodipodi:nodetypes="cccsssscscc"/>
  <path style="fill:#323232;fill-opacity:1;fill-rule:evenodd;stroke:none;stroke-width:3;stroke-linecap:round;stroke-linejoin:round;stroke-miterlimit:4;stroke-dasharray:none;stroke-opacity:1" d="M 249.1875,103.9375 C 248.73669,104.01577 248.34624,104.2955 248.12714,104.69719 C 247.90804,105.09888 247.88423,105.5786 248.0625,106 L 259,134.25 L 243.875,139.5 C 243.41704,139.65907 243.06419,140.02965 242.92773,140.49484 C 242.79127,140.96004 242.88804,141.4625 243.1875,141.84375 L 252.65625,153.5 C 249.75503,154.27439 237.22698,157.65161 221.5,163.40625 C 203.85335,169.86332 184.28855,178.46563 176.125,188.5 C 175.75337,188.90949 175.63715,189.49023 175.82258,190.0112 C 176.008,190.53217 176.465,190.90888 177.01178,190.99149 C 177.55856,191.07409 178.10645,190.84919 178.4375,190.40625 C 185.60659,181.59424 205.04059,172.61874 222.53125,166.21875 C 240.02191,159.81876 255.59375,155.78125 255.59375,155.78125 C 256.08982,155.65267 256.48592,155.27976 256.64418,154.79235 C 256.80243,154.30493 256.70092,153.77046 256.375,153.375 C 256.57929,148.33468 251.64202,145.00822 246.875,141.625 L 261.46875,136.5625 C 261.84793,136.42852 262.15745,136.14791 262.32784,135.78364 C 262.49822,135.41936 262.51522,135.00192 262.375,134.625 C 259.49976,125.26623 259.22121,117.39128 250.875,104.90625 C 250.62659,104.21285 249.91155,103.80236 249.1875,103.9375 L 249.1875,103.9375 z " id="path6171" sodipodi:nodetypes="cscccsccscsscscscccscccc"/>
  <path clip-rule="evenodd" d="M 40.644,116.334 C 33.768,117.774 27.576,116.694 22.068,113.238 C 16.344,109.782 9.972,104.562 7.416,95.49 C 4.896,86.058 7.344,68.346 7.416,58.05 C 7.379,47.754 6.408,39.582 7.704,34.362 C 9.036,29.106 11.52,26.622 15.3,26.766 C 15.84,33.498 16.452,39.186 17.28,44.226 C 18.036,49.266 18.972,53.262 20.088,56.61 C 19.224,44.478 19.044,35.802 19.548,30.15 C 19.944,24.534 20.736,24.678 22.896,23.094 C 25.092,21.438 28.188,20.502 32.472,20.286 C 32.472,26.946 32.76,32.958 33.336,38.862 C 33.84,44.694 34.776,49.914 35.856,54.918 C 35.784,41.49 35.928,31.914 36.144,25.362 C 36.324,18.846 35.676,18.306 37.26,16.362 C 38.844,14.346 43.56,13.302 45.432,13.806 C 47.124,14.13 47.088,12.546 47.7,19.17 C 48.168,25.938 48.492,37.206 48.528,53.802 C 49.104,51.534 49.896,47.826 50.508,42.534 C 51.084,37.17 51.876,30.366 52.488,21.978 C 56.124,21.186 58.896,21.798 60.66,23.67 C 62.388,25.506 62.712,29.07 63.18,33.246 C 63.684,37.386 62.856,44.118 63.468,48.438 C 63.9,52.722 66.492,55.098 65.988,58.878 C 65.448,62.658 63.576,66.474 60.372,70.722 C 61.56,72.09 62.964,72.558 64.296,72.126 C 65.628,71.622 67.5,70.902 68.544,67.878 C 69.372,64.746 67.716,57.834 69.948,53.802 C 72.18,49.626 78.624,45.45 82.044,43.65 C 85.356,41.886 88.956,42.354 89.928,43.11 C 90.756,43.686 88.668,45.738 87.408,47.322 C 86.076,48.834 82.908,49.266 82.332,52.11 C 81.684,54.846 84.096,60.462 83.736,63.954 C 83.232,67.338 79.704,67.554 79.524,72.378 C 79.2,77.202 82.908,86.562 82.044,92.394 C 81.108,98.154 79.128,102.942 74.16,106.47 C 68.976,109.854 57.672,113.814 51.912,112.662 C 46.08,111.222 40.752,104.958 39.816,98.874 C 38.988,92.79 46.62,79.542 46.584,76.626 C 46.332,73.674 41.004,77.634 38.952,81.414 C 36.864,85.194 33.84,93.186 34.164,99.162 C 34.416,105.03 36.576,110.574 40.644,116.334 z " i:knockout="Off" stroke-miterlimit="10" id="path11" style="fill:#e9bdb0;fill-rule:evenodd;stroke:#000000;stroke-width:0.036;stroke-miterlimit:10"/>
  <path sodipodi:nodetypes="ccs" id="path13940" d="M 227.11482,133.55733 C 227.11482,133.55733 188.54558,161.00105 174.08942,185.94387 C 174.08942,185.94387 152.36817,149.52884 128.73034,130.36303" style="fill:none;fill-opacity:1;fill-rule:evenodd;stroke:#323232;stroke-width:3;stroke-linecap:round;stroke-linejoin:round;stroke-miterlimit:4;stroke-dasharray:none;stroke-opacity:1"/>
  <path clip-rule="evenodd" d="M 112.211,79.434 C 111.311,79.83 109.439,75.87 109.079,73.242 C 108.503,70.542 108.971,66.654 109.367,63.954 C 109.619,61.146 110.411,58.194 111.347,57.186 C 112.391,56.142 113.435,56.106 115.307,58.05 C 116.999,59.886 117.863,65.25 121.787,68.454 C 123.731,70.038 123.14539,53.654069 123.58928,46.311611 C 124.49921,31.260463 134.70344,45.275117 145.30839,41.724294 C 154.66839,43.920294 197.59162,43.514791 206.69862,41.534791 C 215.73562,39.410791 220.51909,40.707111 226.83047,41.57687 C 229.16907,39.350054 233.52224,39.207731 234.89535,40.581045 C 236.26846,41.954359 236.07262,45.31368 236.8391,48.208673 C 237.60557,51.103666 232.51401,61.295431 233.97344,68.33735 C 237.32061,67.231621 240.62107,60.456554 241.486,59.454 C 243.898,58.194 245.265,59.274 245.986,62.55 C 246.634,65.862 246.166,75.654 245.697,79.146 C 245.123,82.458 243.861,84.15 242.89,82.818 C 241.845,81.378 240.765,72.198 239.794,70.974 C 238.714,69.678 236.696,69.246 236.948,75.222 C 237.2,81.126 241.126,97.326 241.485,106.47 C 239.42899,141.06041 198.12652,147.00143 191.93352,147.07343 C 185.52552,146.92943 181.74997,143.61687 176.45697,143.14887 C 171.16497,142.71687 169.43753,145.89401 162.63353,146.47001 C 134.88657,144.38257 114.39542,116.48194 114.045,104.9805 C 113.89468,100.04673 116.097,95.13 116.421,90.99 C 116.997,82.638 116.385,72.306 116.133,68.742 C 115.701,65.142 115.089,68.058 114.441,69.858 C 113.795,71.73 113.003,78.714 112.211,79.434 z " i:knockout="Off" stroke-miterlimit="10" id="path13" style="fill:#e9bdb0;fill-rule:evenodd;stroke:#000000;stroke-width:0.036;stroke-miterlimit:10" sodipodi:nodetypes="ccccccscccssccccsccccccscccc"/>
  <path clip-rule="evenodd" d="M 147.132,85.086 C 141.444,86.562 136.512,89.226 132.192,93.51 C 127.764,97.686 121.14,108.558 121.212,110.142 C 121.32,111.582 128.412,104.742 132.768,102.546 C 137.016,100.278 141.336,98.118 146.556,96.894 C 151.704,95.562 157.068,94.95 163.188,94.914 C 165.132,98.262 167.472,100.566 170.208,101.97 C 172.908,103.338 176.004,103.986 179.496,103.086 C 182.951,102.078 186.805,99.738 191.053,96.066 C 194.905,95.49 199.08,95.814 203.436,97.182 C 207.864,98.514 212.616,101.61 217.26,103.95 C 221.76,106.074 228.385,110.682 230.473,110.43 C 232.524,109.998 233.641,106.578 229.356,102.258 C 224.965,97.938 216.612,92.214 204.301,84.798 C 208.981,88.722 212.867,92.142 216.108,95.202 C 219.241,98.262 224.749,103.014 223.452,102.798 C 221.905,102.402 213.264,95.094 208.225,93.222 C 203.184,91.242 198.577,90.594 193.86,91.278 C 196.561,88.11 197.784,86.094 197.532,85.086 C 197.137,84.006 194.473,83.574 192.169,85.338 C 189.829,87.138 187.021,93.726 183.745,95.778 C 180.361,97.686 175.681,98.01 172.477,96.894 C 169.237,95.67 167.077,90.954 164.593,88.722 C 161.821,86.31 157.753,83.466 156.961,83.646 C 156.169,83.898 157.429,86.202 160.345,90.414 C 155.953,89.55 151.129,90.162 145.729,92.106 C 140.293,94.014 129.709,101.322 127.981,101.97 C 126.253,102.438 131.653,98.334 135.001,95.49 C 138.204,92.646 142.2,89.226 147.132,85.086 z " i:knockout="Off" stroke-miterlimit="10" id="path15" style="fill-rule:evenodd;stroke:#000000;stroke-width:0.036;stroke-miterlimit:10"/>
  <path clip-rule="evenodd" d="M 170.69504,76.309675 C 172.17536,74.19958 173.37181,70.593595 173.40975,66.819869 C 173.44726,63.089014 183.49515,63.066163 183.40073,66.792417 C 183.39617,66.972438 183.74125,64.922512 183.77592,64.741197 C 184.08696,63.114765 173.47103,62.908989 172.91884,64.691449 C 171.35463,60.256587 166.21179,56.030381 153.65326,54.35021 C 153.28627,54.233202 152.41041,54.0309 151.18203,53.8208 C 149.95364,53.6107 148.37272,53.392801 146.5956,53.244601 C 144.81848,53.096401 142.84516,53.0179 140.83197,53.086592 C 138.81878,53.155285 136.76573,53.371171 134.82913,53.811749 C 132.89254,54.252326 131.07241,54.917594 129.52507,55.885048 C 128.7514,56.368775 128.04593,56.928049 127.4282,57.572556 C 126.81047,58.217064 115.5257,47.636472 114.87654,48.297791 C 114.03094,49.159227 113.63713,50.047087 115.77181,50.869253 C 116.74363,51.243548 124.68067,64.692891 124.76525,65.935983 C 124.93442,68.422169 125.68905,71.365533 127.18547,74.843573 C 128.97353,87.461867 162.7293,87.591867 170.69504,76.309675 z " i:knockout="Off" stroke-miterlimit="10" id="path17" style="fill-rule:evenodd;stroke:#000000;stroke-width:0.03962838;stroke-miterlimit:10" sodipodi:nodetypes="csssccssssssssscc"/>
  <path style="fill:#323232;fill-opacity:1;fill-rule:evenodd;stroke:none;stroke-width:3;stroke-miterlimit:10;stroke-dasharray:none;stroke-opacity:1" d="M 170.46875,236.03125 C 162.73509,236.03125 156.15625,241.19402 156.15625,247.9375 C 156.15625,254.6795 162.736,259.8125 170.46875,259.8125 C 178.20241,259.8125 184.78125,254.67932 184.78125,247.9375 C 184.78125,241.19402 178.20241,236.03125 170.46875,236.03125 z M 170.46875,239.03125 C 179.12111,242.22555 181.78125,243.19298 181.78125,247.9375 C 181.78125,252.67967 176.72669,258.22939 170.46875,256.8125 C 163.41465,255.21535 159.15625,252.6795 159.15625,247.9375 C 159.15625,243.19297 164.05241,239.03125 170.46875,239.03125 z " id="path55" sodipodi:nodetypes="csssccsssc"/>
  <path style="fill:#323232;fill-opacity:1;fill-rule:evenodd;stroke:none;stroke-width:3;stroke-miterlimit:10;stroke-dasharray:none;stroke-opacity:1" d="M 165.96875,202.1875 C 158.23509,202.1875 151.65624,207.35192 151.65625,214.09375 C 151.65625,220.8374 158.236,226.00001 165.96875,226 C 173.70241,226 180.31251,220.83723 180.3125,214.09375 C 180.3125,207.35192 173.70241,202.18751 165.96875,202.1875 z M 165.96875,205.1875 C 172.38509,205.18751 177.3125,209.35158 177.3125,214.09375 C 177.3125,218.83827 169.82965,222.68057 165.96875,223 C 159.57534,223.52896 153.91829,215.35833 154.65625,214.09375 C 157.80786,208.69309 159.55241,205.1875 165.96875,205.1875 z " id="path59" sodipodi:nodetypes="csssccsssc"/>
  <path style="fill:#323232;fill-opacity:1;fill-rule:evenodd;stroke:none;stroke-width:3;stroke-linecap:round;stroke-linejoin:round;stroke-miterlimit:4;stroke-dasharray:none;stroke-opacity:1" d="M 106.40625,106.875 C 105.86289,106.95612 105.40734,107.32775 105.21875,107.84375 C 105.21875,107.84375 100.24603,113.82699 97.513989,121.06603 C 96.147967,124.68555 95.098497,134.76531 94.8125,135.5625 C 94.669502,135.96109 94.545714,136.26925 94.46875,136.5 C 94.430268,136.61537 94.403176,136.71254 94.375,136.8125 C 94.360912,136.86248 94.364625,136.91076 94.34375,137.03125 C 94.333312,137.0915 94.294886,137.14634 94.3125,137.40625 C 94.321307,137.5362 94.562058,138.12434 94.5625,138.125 C 94.562942,138.12566 96.217966,138.75023 96.21875,138.75 C 96.219534,138.74977 95.952291,138.80859 95.875,138.8125 C 95.797709,138.81641 95.761043,138.81535 95.71875,138.8125 C 95.634164,138.8068 95.59503,138.78727 95.5625,138.78125 C 95.644241,138.80989 95.751208,138.84769 95.90625,138.90625 C 96.267041,139.04251 96.783483,139.25237 97.40625,139.5 C 98.651784,139.99527 100.32422,140.67266 101.96875,141.34375 C 104.62533,142.42782 106.3323,143.12114 107.25,143.5 C 103.10557,147.28125 103.72036,151.0625 103.65625,154.84375 C 103.42192,155.55032 103.74117,156.32185 104.40625,156.65625 C 115.45192,162.07303 130.052,167.6102 143.75,173.625 C 157.33684,179.59099 170.01334,186.08166 177.3125,193.0625 C 178.23095,194.9078 179.64474,199.70148 181,206 C 182.38612,212.44196 183.78038,220.45802 184.9375,228.84375 C 187.23289,245.47864 188.52025,263.6001 186.96875,273.25 C 183.8149,273.26658 180.75678,273.34864 177.59375,273.34375 C 131.24481,273.27215 84.521651,270.82835 63.3125,265 C 62.776072,264.78335 62.162873,264.89447 61.736574,265.28557 C 61.310276,265.67667 61.146858,266.27805 61.31659,266.83112 C 61.486321,267.38418 60.68123,270.3458 61.25353,270.43044 C 83.325136,276.4958 131.1132,276.272 177.5625,276.34375 C 224.0118,276.4155 270.7953,277.38276 291.82636,273.97555 C 292.64616,273.84611 292.56694,269.8823 292.4375,269.0625 C 292.30806,268.2427 291.53855,267.68306 290.71875,267.8125 C 272.0222,270.8415 231.93514,272.90848 189.96875,273.21875 C 191.54775,262.68242 190.4619,243.80001 189.18397,227.15978 C 188.01746,211.97035 181.22964,193.95092 179.90625,191.4375 C 179.833,191.29839 179.73782,191.17199 179.625,191.0625 C 171.77023,183.44886 158.76303,176.93207 144.96875,170.875 C 131.60419,165.00662 117.62396,159.63007 106.90625,154.46875 L 110.5,143.09375 C 110.73953,142.35335 110.37314,141.55272 109.65625,141.25 C 109.65625,141.25 106.39122,139.9081 103.09375,138.5625 C 101.44502,137.8897 99.793281,137.22058 98.53125,136.71875 C 98.191591,136.58369 97.963309,136.51386 97.6875,136.40625 C 97.964475,135.63712 98.33942,134.61816 98.8125,133.34375 C 99.815952,130.64058 101.19743,127.02324 102.5625,123.40625 C 105.29263,116.17227 108.03125,108.90625 108.03125,108.90625 C 108.22765,108.40645 108.14191,107.83979 107.80645,107.42047 C 107.47099,107.00114 106.93697,106.79311 106.40625,106.875 L 106.40625,106.875 z " id="path2283" sodipodi:nodetypes="ccsssssssssssssscccscsscscsscscsccsssscccsscsscscc"/>
  <path sodipodi:nodetypes="ccssssssssssssssscc" style="fill-rule:evenodd;stroke:#000000;stroke-width:0.03962838;stroke-miterlimit:10" id="path6163" stroke-miterlimit="10" i:knockout="Off" d="M 186.17621,75.902299 C 182.66182,70.892784 178.05912,57.308771 203.21799,53.942834 C 203.40149,53.88433 203.7122,53.804502 204.13058,53.713038 C 204.54897,53.621574 205.07503,53.518474 205.68922,53.413424 C 206.30342,53.308374 207.00574,53.201374 207.77666,53.102112 C 208.54758,53.00285 209.38709,52.911325 210.27565,52.837225 C 211.16421,52.763125 212.10182,52.70645 213.06894,52.676886 C 214.03606,52.647322 215.03268,52.64487 216.03928,52.679216 C 217.04587,52.713562 218.06243,52.784707 219.06942,52.902338 C 220.07641,53.019968 221.07382,53.184084 222.04212,53.404373 C 223.01042,53.624661 223.9496,53.901123 224.84012,54.243443 C 225.73064,54.585764 226.57251,54.993945 227.34618,55.477672 C 228.11985,55.961399 228.82532,56.520673 229.44305,57.165181 C 230.06077,57.809688 246.26996,48.779931 246.69267,49.604593 C 247.11538,50.429255 247.91077,50.868863 246.97944,52.373028 C 246.43121,53.258455 232.19059,64.285515 232.106,65.528607 C 232.02142,66.7717 231.79047,68.129088 231.39361,69.610457 C 230.99675,71.091826 230.43399,72.697177 229.68578,74.436197 C 227.89772,87.054491 194.14195,87.184491 186.17621,75.902299 z " clip-rule="evenodd"/>
  <path style="fill:#323232;fill-opacity:1;fill-rule:evenodd;stroke:none;stroke-width:3;stroke-linecap:round;stroke-linejoin:round;stroke-miterlimit:4;stroke-dasharray:none;stroke-opacity:1" d="M 294.67355,155.37633 C 294.91197,156.10094 295.60259,155.63194 296.34375,155.78125 C 296.34375,155.78125 299.77759,155.00377 302.22199,157.80764 C 304.1449,160.01333 305.93256,161.50057 306.19074,167.25348 C 305.99578,168.80118 300.06544,173.30531 300.21737,175.16945 C 300.22644,175.28073 309.7997,165.3608 311.0625,163.6875 C 312.85077,161.3179 318.91611,159.52332 319.19254,158.77255 C 319.48059,157.99023 316.01109,158.02642 315.26033,158.38886 C 315.26033,158.38886 305.01798,158.91419 303.5625,157.25 C 300.57846,153.83806 297.91598,153.87156 298.03819,151.69908 C 297.3173,151.46229 294.43724,154.65816 294.67355,155.37633 z " id="path8111" sodipodi:nodetypes="ccscssscscs"/>
  <path style="fill:#717171;fill-opacity:1;fill-rule:evenodd;stroke:#585858;stroke-width:2.70528817;stroke-linecap:butt;stroke-linejoin:miter;stroke-miterlimit:4;stroke-dasharray:none;stroke-opacity:1" d="M 231.89449,162.66604 C 231.89449,162.66604 244.65601,167.23064 253.16369,162.09188 C 262.61667,167.23064 273.01495,163.09427 273.01495,163.09427 C 273.01495,163.09427 279.63202,202.77372 253.16369,203.20195 C 225.27736,202.91646 231.89449,162.09506 231.89449,162.66604 z " id="path14934" sodipodi:nodetypes="ccccc"/>
  <metadata>
    <rdf:RDF>
      <cc:Work>
        <dc:format>image/svg+xml</dc:format>
        <dc:type rdf:resource="http://purl.org/dc/dcmitype/StillImage"/>
        <cc:license rdf:resource="http://creativecommons.org/licenses/publicdomain/"/>
        <dc:publisher>
          <cc:Agent rdf:about="http://openclipart.org/">
            <dc:title>Open Clip Art Library</dc:title>
          </cc:Agent>
        </dc:publisher>
        <dc:title>FBI Dude</dc:title>
        <dc:date>2008-01-06T04:35:35</dc:date>
        <dc:description>FBI, CIA or Secret Agent. Dressed in black suit and wearing dark shades.</dc:description>
        <dc:source>http://openclipart.org/detail/10717/fbi-dude-by-elkbuntu</dc:source>
        <dc:creator>
          <cc:Agent>
            <dc:title>elkbuntu</dc:title>
          </cc:Agent>
        </dc:creator>
        <dc:subject>
          <rdf:Bag>
            <rdf:li>agent</rdf:li>
            <rdf:li>agent</rdf:li>
            <rdf:li>cia</rdf:li>
            <rdf:li>cia</rdf:li>
            <rdf:li>clip art</rdf:li>
            <rdf:li>clipart</rdf:li>
            <rdf:li>dark</rdf:li>
            <rdf:li>dark</rdf:li>
            <rdf:li>detective</rdf:li>
            <rdf:li>detective</rdf:li>
            <rdf:li>fbi</rdf:li>
            <rdf:li>fbi</rdf:li>
            <rdf:li>image</rdf:li>
            <rdf:li>media</rdf:li>
            <rdf:li>png</rdf:li>
            <rdf:li>police</rdf:li>
            <rdf:li>police</rdf:li>
            <rdf:li>public domain</rdf:li>
            <rdf:li>remix</rdf:li>
            <rdf:li>secret</rdf:li>
            <rdf:li>secret</rdf:li>
            <rdf:li>shades</rdf:li>
            <rdf:li>shades</rdf:li>
            <rdf:li>suit</rdf:li>
            <rdf:li>suit</rdf:li>
            <rdf:li>sunglasses</rdf:li>
            <rdf:li>sunglasses</rdf:li>
            <rdf:li>sunnies</rdf:li>
            <rdf:li>sunnies</rdf:li>
            <rdf:li>svg</rdf:li>
          </rdf:Bag>
        </dc:subject>
      </cc:Work>
      <cc:License rdf:about="http://creativecommons.org/licenses/publicdomain/">
        <cc:permits rdf:resource="http://creativecommons.org/ns#Reproduction"/>
        <cc:permits rdf:resource="http://creativecommons.org/ns#Distribution"/>
        <cc:permits rdf:resource="http://creativecommons.org/ns#DerivativeWorks"/>
      </cc:License>
    </rdf:RDF>
  </metadata>
</svg>
