<?xml version="1.0" encoding="UTF-8" standalone="no"?>
<!-- Created with Inkscape (http://www.inkscape.org/) -->
<svg
   xmlns:dc="http://purl.org/dc/elements/1.1/"
   xmlns:cc="http://creativecommons.org/ns#"
   xmlns:rdf="http://www.w3.org/1999/02/22-rdf-syntax-ns#"
   xmlns:svg="http://www.w3.org/2000/svg"
   xmlns="http://www.w3.org/2000/svg"
   xmlns:sodipodi="http://sodipodi.sourceforge.net/DTD/sodipodi-0.dtd"
   xmlns:inkscape="http://www.inkscape.org/namespaces/inkscape"
   id="svg2"
   sodipodi:version="0.32"
   inkscape:version="0.46"
   width="526.00208"
   height="253.50285"
   sodipodi:docname="Film_Slate.svg"
   inkscape:output_extension="org.inkscape.output.svg.inkscape"
   version="1.0"
   inkscape:export-filename="/Users/glenn/Desktop/Film_Slate.png"
   inkscape:export-xdpi="13.001458"
   inkscape:export-ydpi="13.001458">
  <sodipodi:namedview
     inkscape:window-height="743"
     inkscape:window-width="912"
     inkscape:pageshadow="2"
     inkscape:pageopacity="0.0"
     guidetolerance="10.0"
     gridtolerance="10.0"
     objecttolerance="30"
     borderopacity="1.0"
     bordercolor="#666666"
     pagecolor="#ffffff"
     id="base"
     showgrid="false"
     inkscape:zoom="1.52661"
     inkscape:cx="174.1283"
     inkscape:cy="160.21079"
     inkscape:window-x="357"
     inkscape:window-y="120"
     inkscape:current-layer="svg2"
     showguides="true"
     inkscape:guide-bbox="true"
     inkscape:object-paths="true"
     inkscape:snap-guide="true">
    <sodipodi:guide
       orientation="1,0"
       position="250.88267,36.027538"
       id="guide2393" />
    <sodipodi:guide
       orientation="0,1"
       position="36.027538,254.15791"
       id="guide2421" />
  </sodipodi:namedview>
  <metadata
     id="metadata7">
    <rdf:RDF>
      <cc:Work
         rdf:about="">
        <dc:format>image/svg+xml</dc:format>
        <dc:type
           rdf:resource="http://purl.org/dc/dcmitype/StillImage" />
      </cc:Work>
    </rdf:RDF>
  </metadata>
  <defs
     id="defs5">
    <inkscape:perspective
       sodipodi:type="inkscape:persp3d"
       inkscape:vp_x="0 : 140.46532 : 1"
       inkscape:vp_y="0 : 1000 : 0"
       inkscape:vp_z="248.26405 : 140.46532 : 1"
       inkscape:persp3d-origin="124.13203 : 93.643545 : 1"
       id="perspective2399" />
  </defs>
  <rect
     style="opacity:1;fill:#eeeeee;fill-opacity:1;stroke:none;stroke-width:0.51499998999999996;stroke-miterlimit:4;stroke-dasharray:none;stroke-opacity:1"
     id="rect2390"
     width="250.88268"
     height="246.29735"
     x="0.65504891"
     y="0"
     rx="30"
     ry="30" />
  <rect
     ry="7.79"
     y="107.68939"
     x="2.8967671"
     height="140.15204"
     width="210.62962"
     id="rect2404"
     style="fill:#000000;fill-opacity:1;stroke:#000000;stroke-width:0.89604855;stroke-miterlimit:4;stroke-dasharray:none;stroke-opacity:1"
     transform="matrix(0.9948009,-0.1018386,0.1510018,0.9885335,0,0)"
     inkscape:export-filename="/home/maidis/Desktop/rect4268.png"
     inkscape:export-xdpi="18.919405"
     inkscape:export-ydpi="18.919405" />
  <rect
     ry="5.9690814"
     y="128.72342"
     x="20.002165"
     height="107.39138"
     width="176.3243"
     id="rect6482"
     style="fill:#eeeeee;fill-opacity:0.6;stroke:#000000;stroke-width:0.81511372;stroke-opacity:1"
     transform="matrix(0.9950777,-9.9097734e-2,0.1554297,0.987847,0,0)"
     inkscape:export-filename="/home/maidis/Desktop/rect4268.png"
     inkscape:export-xdpi="18.919405"
     inkscape:export-ydpi="18.919405" />
  <path
     style="opacity:0.1;fill:#ffffff;fill-opacity:1;stroke:none;stroke-opacity:1"
     d="M 47.829148,124.83152 C 43.480864,125.26709 40.397169,128.32291 40.921563,131.6767 L 47.843442,175.94585 C 68.139533,177.26107 90.793455,176.87505 114.48846,174.50157 C 160.08595,169.93416 199.72832,158.97014 224.75587,145.52663 L 219.78887,113.75994 C 219.26447,110.40616 215.33498,108.05282 210.98671,108.48838 L 47.829148,124.83152 z"
     id="rect2414"
     inkscape:export-filename="/home/maidis/Desktop/rect4268.png"
     inkscape:export-xdpi="18.919405"
     inkscape:export-ydpi="18.919405" />
  <rect
     style="opacity:1;fill:#000000;fill-opacity:1;stroke:none;stroke-width:1;stroke-miterlimit:4;stroke-dasharray:none;stroke-opacity:1"
     id="rect3287"
     width="225.22977"
     height="26.276808"
     x="-18.596188"
     y="63.250961"
     ry="0"
     transform="matrix(0.9593944,-0.2820681,0.2820681,0.9593944,0,0)"
     inkscape:export-filename="/home/maidis/Desktop/rect4268.png"
     inkscape:export-xdpi="18.919405"
     inkscape:export-ydpi="18.919405" />
  <path
     style="opacity:0.6;fill:#eeeeee;fill-opacity:1;stroke:none;stroke-width:1;stroke-miterlimit:4;stroke-dasharray:none;stroke-opacity:1"
     d="M 8.1324539,63.531777 L 3.5631469,78.141709 L 7.3848829,91.140519 L 16.022601,88.600979 L 25.436077,58.444399 L 8.1324539,63.531777 z M 60.380958,48.170403 L 50.939347,78.33523 L 68.271129,73.23959 L 77.712725,43.074745 L 60.380958,48.170403 z M 112.65759,32.800721 L 103.21598,62.96558 L 120.54775,57.869939 L 129.96121,27.713362 L 112.65759,32.800721 z M 164.90608,17.439349 L 155.46447,47.604194 L 172.79624,42.508554 L 182.23785,12.343695 L 164.90608,17.439349 z M 216.55362,4.0887337 L 207.74111,32.234541 L 223.46913,27.610414 L 216.55362,4.0887337 z"
     id="path4707"
     inkscape:export-filename="/home/maidis/Desktop/rect4268.png"
     inkscape:export-xdpi="18.919405"
     inkscape:export-ydpi="18.919405" />
  <rect
     ry="0"
     y="90.889488"
     x="-226.72871"
     height="26.276827"
     width="225.22995"
     id="rect4723"
     style="opacity:1;fill:#000000;fill-opacity:1;stroke:none;stroke-width:1;stroke-miterlimit:4;stroke-dasharray:none;stroke-opacity:1"
     transform="matrix(-0.9943296,0.106342,0.106342,0.9943296,0,0)"
     inkscape:export-filename="/home/maidis/Desktop/rect4268.png"
     inkscape:export-xdpi="18.919405"
     inkscape:export-ydpi="18.919405" />
  <path
     id="path4725"
     d="M 226.6517,67.167798 L 236.46173,78.919059 L 237.90255,92.391219 L 228.95028,93.348649 L 208.71797,69.085772 L 226.6517,67.167798 z M 172.50062,72.959143 L 192.76209,97.218909 L 174.79922,99.139999 L 154.53775,74.880234 L 172.50062,72.959143 z M 118.3204,78.753606 L 138.58187,103.01337 L 120.619,104.93446 L 100.38669,80.67158 L 118.3204,78.753606 z M 64.169349,84.544949 L 84.430799,108.80471 L 66.467923,110.7258 L 46.206473,86.466039 L 64.169349,84.544949 z M 11.342666,91.964319 L 30.250576,114.59918 L 13.949844,116.34251 L 11.342666,91.964319 z"
     style="opacity:0.6;fill:#eeeeee;fill-opacity:1;stroke:none;stroke-width:1;stroke-miterlimit:4;stroke-dasharray:none;stroke-opacity:1"
     inkscape:export-filename="/home/maidis/Desktop/rect4268.png"
     inkscape:export-xdpi="18.919405"
     inkscape:export-ydpi="18.919405" />
  <path
     style="fill:#000000;fill-opacity:1;stroke:none;stroke-width:1;stroke-miterlimit:4;stroke-opacity:1"
     d="M 45.362194,85.330539 L 16.968549,113.48726 C 15.728073,114.79561 13.864573,114.25249 13.538259,112.90666 L 3.6092319,71.957112 C 3.2828889,70.611297 4.6906939,69.274979 6.3926739,69.869886 L 44.529187,81.89504 C 46.231164,82.489949 46.602682,84.022189 45.362194,85.330539 z"
     id="rect4743"
     sodipodi:nodetypes="ccssccc"
     inkscape:export-filename="/home/maidis/Desktop/rect4268.png"
     inkscape:export-xdpi="18.919405"
     inkscape:export-ydpi="18.919405" />
  <path
     style="opacity:0.78915698;fill:#000000;fill-opacity:1;stroke:none;stroke-width:1;stroke-miterlimit:4;stroke-opacity:1"
     d="M 4.9367779,69.82202 C 3.9897689,70.113812 3.3760619,71.030363 3.6004159,71.955585 L 8.5176199,92.235209 C 9.9817119,92.179879 11.459516,91.985309 12.938086,91.626789 C 20.69437,89.746129 26.488024,84.004909 28.818893,76.940944 L 6.3825009,69.868701 C 5.8506449,69.682772 5.3672629,69.689365 4.9367779,69.82202 z"
     id="path4746"
     inkscape:export-filename="/home/maidis/Desktop/rect4268.png"
     inkscape:export-xdpi="18.919405"
     inkscape:export-ydpi="18.919405" />
  <path
     sodipodi:type="arc"
     style="opacity:0.78915698;fill:#eeeeee;fill-opacity:1;stroke:#000000;stroke-width:1;stroke-miterlimit:4;stroke-dasharray:none;stroke-opacity:1"
     id="path4783"
     sodipodi:cx="43.65543"
     sodipodi:cy="257.87967"
     sodipodi:rx="4.5160789"
     sodipodi:ry="4.5160789"
     d="M 48.171509,257.87967 A 4.5160789,4.5160789 0 1 1 39.139351,257.87967 A 4.5160789,4.5160789 0 1 1 48.171509,257.87967 z"
     transform="matrix(0.505289,-0.122517,0.122517,0.505289,-44.245197,-49.047281)"
     inkscape:export-filename="/home/maidis/Desktop/rect4268.png"
     inkscape:export-xdpi="18.919405"
     inkscape:export-ydpi="18.919405" />
  <path
     transform="matrix(0.505289,-0.122517,0.122517,0.505289,-36.806197,-18.367281)"
     d="M 48.171509,257.87967 A 4.5160789,4.5160789 0 1 1 39.139351,257.87967 A 4.5160789,4.5160789 0 1 1 48.171509,257.87967 z"
     sodipodi:ry="4.5160789"
     sodipodi:rx="4.5160789"
     sodipodi:cy="257.87967"
     sodipodi:cx="43.65543"
     id="path4811"
     style="opacity:0.78915698;fill:#eeeeee;fill-opacity:1;stroke:#000000;stroke-width:1;stroke-miterlimit:4;stroke-dasharray:none;stroke-opacity:1"
     sodipodi:type="arc"
     inkscape:export-filename="/home/maidis/Desktop/rect4268.png"
     inkscape:export-xdpi="18.919405"
     inkscape:export-ydpi="18.919405" />
  <path
     style="opacity:0.5;fill:#eeeeee;fill-opacity:1;stroke:none;stroke-opacity:1"
     d="M 13.970867,116.30458 L 237.8179,92.364599 L 231.40187,95.519809 L 20.695844,117.89336 L 13.970867,116.30458 z"
     id="rect4268"
     sodipodi:nodetypes="ccccc"
     inkscape:export-xdpi="18.919405"
     inkscape:export-ydpi="18.919405" />
  <rect
     style="opacity:1;fill:#cccccc;fill-opacity:1;stroke:none;stroke-width:0.51499998999999996;stroke-miterlimit:4;stroke-dasharray:none;stroke-opacity:1"
     id="rect2395"
     width="250.88268"
     height="246.29735"
     x="250.88268"
     y="-0.6550566"
     rx="30"
     ry="30" />
  <rect
     ry="7.79"
     y="132.5511"
     x="250.65834"
     height="140.15204"
     width="210.62962"
     id="rect2397"
     style="fill:#000000;fill-opacity:1;stroke:#000000;stroke-width:0.89604855;stroke-miterlimit:4;stroke-dasharray:none;stroke-opacity:1"
     transform="matrix(0.9948009,-0.1018386,0.1510018,0.9885335,0,0)"
     inkscape:export-filename="/home/maidis/Desktop/rect4268.png"
     inkscape:export-xdpi="18.919405"
     inkscape:export-ydpi="18.919405" />
  <rect
     ry="5.9690828"
     y="152.90761"
     x="267.69003"
     height="107.39141"
     width="176.3243"
     id="rect2399"
     style="fill:#eeeeee;fill-opacity:0.6;stroke:#000000;stroke-width:0.81511372;stroke-opacity:1"
     transform="matrix(0.9950777,-9.9097734e-2,0.1554297,0.987847,0,0)"
     inkscape:export-filename="/home/maidis/Desktop/rect4268.png"
     inkscape:export-xdpi="18.919405"
     inkscape:export-ydpi="18.919405" />
  <path
     style="opacity:0.1;fill:#ffffff;fill-opacity:1;stroke:none;stroke-opacity:1"
     d="M 298.05678,124.17647 C 293.70849,124.61204 290.6248,127.66786 291.14919,131.02165 L 298.07107,175.2908 C 318.36716,176.60602 341.02108,176.22 364.71609,173.84652 C 410.31358,169.27911 449.95594,158.31509 474.98349,144.87158 L 470.01649,113.10489 C 469.49209,109.75111 465.5626,107.39777 461.21433,107.83333 L 298.05678,124.17647 z"
     id="path2401"
     inkscape:export-filename="/home/maidis/Desktop/rect4268.png"
     inkscape:export-xdpi="18.919405"
     inkscape:export-ydpi="18.919405" />
  <rect
     style="opacity:1;fill:#000000;fill-opacity:1;stroke:none;stroke-width:1;stroke-miterlimit:4;stroke-dasharray:none;stroke-opacity:1"
     id="rect2403"
     width="225.22977"
     height="26.276808"
     x="221.65556"
     y="133.20374"
     ry="0"
     transform="matrix(0.9593944,-0.2820681,0.2820681,0.9593944,0,0)"
     inkscape:export-filename="/home/maidis/Desktop/rect4268.png"
     inkscape:export-xdpi="18.919405"
     inkscape:export-ydpi="18.919405" />
  <path
     style="opacity:0.6;fill:#eeeeee;fill-opacity:1;stroke:none;stroke-width:1;stroke-miterlimit:4;stroke-dasharray:none;stroke-opacity:1"
     d="M 258.36008,62.87672 L 253.79077,77.486652 L 257.61251,90.485462 L 266.25023,87.945922 L 275.6637,57.789342 L 258.36008,62.87672 z M 310.60859,47.515346 L 301.16697,77.680173 L 318.49876,72.584533 L 327.94035,42.419688 L 310.60859,47.515346 z M 362.88522,32.145664 L 353.44361,62.310523 L 370.77538,57.214882 L 380.18884,27.058305 L 362.88522,32.145664 z M 415.13371,16.784292 L 405.6921,46.949137 L 423.02387,41.853497 L 432.46548,11.688638 L 415.13371,16.784292 z M 466.78124,3.4336766 L 457.96873,31.579484 L 473.69675,26.955357 L 466.78124,3.4336766 z"
     id="path2405"
     inkscape:export-filename="/home/maidis/Desktop/rect4268.png"
     inkscape:export-xdpi="18.919405"
     inkscape:export-ydpi="18.919405" />
  <rect
     ry="0"
     y="116.84785"
     x="-475.60712"
     height="26.276827"
     width="225.22995"
     id="rect2407"
     style="opacity:1;fill:#000000;fill-opacity:1;stroke:none;stroke-width:1;stroke-miterlimit:4;stroke-dasharray:none;stroke-opacity:1"
     transform="matrix(-0.9943296,0.106342,0.106342,0.9943296,0,0)"
     inkscape:export-filename="/home/maidis/Desktop/rect4268.png"
     inkscape:export-xdpi="18.919405"
     inkscape:export-ydpi="18.919405" />
  <path
     id="path2409"
     d="M 476.87932,66.512741 L 486.68935,78.264002 L 488.13017,91.736162 L 479.1779,92.693587 L 458.94559,68.430715 L 476.87932,66.512741 z M 422.72825,72.304086 L 442.98972,96.563847 L 425.02685,98.484937 L 404.76538,74.225177 L 422.72825,72.304086 z M 368.54803,78.098549 L 388.8095,102.35832 L 370.84663,104.27941 L 350.61432,80.016523 L 368.54803,78.098549 z M 314.39698,83.889892 L 334.65843,108.14966 L 316.69555,110.07075 L 296.4341,85.810982 L 314.39698,83.889892 z M 261.57029,91.309262 L 280.4782,113.94413 L 264.17747,115.68746 L 261.57029,91.309262 z"
     style="opacity:0.6;fill:#eeeeee;fill-opacity:1;stroke:none;stroke-width:1;stroke-miterlimit:4;stroke-dasharray:none;stroke-opacity:1"
     inkscape:export-filename="/home/maidis/Desktop/rect4268.png"
     inkscape:export-xdpi="18.919405"
     inkscape:export-ydpi="18.919405" />
  <path
     style="fill:#000000;fill-opacity:1;stroke:none;stroke-width:1;stroke-miterlimit:4;stroke-opacity:1"
     d="M 295.58982,84.675482 L 267.19618,112.83221 C 265.9557,114.14056 264.0922,113.59744 263.76589,112.25161 L 253.83686,71.302055 C 253.51052,69.95624 254.91832,68.619922 256.6203,69.214829 L 294.75681,81.239983 C 296.45879,81.834892 296.83031,83.367132 295.58982,84.675482 z"
     id="path2411"
     sodipodi:nodetypes="ccssccc"
     inkscape:export-filename="/home/maidis/Desktop/rect4268.png"
     inkscape:export-xdpi="18.919405"
     inkscape:export-ydpi="18.919405" />
  <path
     style="opacity:0.78915698;fill:#000000;fill-opacity:1;stroke:none;stroke-width:1;stroke-miterlimit:4;stroke-opacity:1"
     d="M 255.16441,69.166963 C 254.2174,69.458755 253.60369,70.375306 253.82804,71.300528 L 258.74525,91.580152 C 260.20934,91.524822 261.68714,91.330252 263.16571,90.971732 C 270.922,89.091072 276.71565,83.349852 279.04652,76.285887 L 256.61013,69.213644 C 256.07827,69.027715 255.59489,69.034308 255.16441,69.166963 z"
     id="path2413"
     inkscape:export-filename="/home/maidis/Desktop/rect4268.png"
     inkscape:export-xdpi="18.919405"
     inkscape:export-ydpi="18.919405" />
  <path
     sodipodi:type="arc"
     style="opacity:0.78915698;fill:#eeeeee;fill-opacity:1;stroke:#000000;stroke-width:1;stroke-miterlimit:4;stroke-dasharray:none;stroke-opacity:1"
     id="path2415"
     sodipodi:cx="43.65543"
     sodipodi:cy="257.87967"
     sodipodi:rx="4.5160789"
     sodipodi:ry="4.5160789"
     d="M 48.171509,257.87967 A 4.5160789,4.5160789 0 1 1 39.139351,257.87967 A 4.5160789,4.5160789 0 1 1 48.171509,257.87967 z"
     transform="matrix(0.505289,-0.122517,0.122517,0.505289,205.98243,-49.702334)"
     inkscape:export-filename="/home/maidis/Desktop/rect4268.png"
     inkscape:export-xdpi="18.919405"
     inkscape:export-ydpi="18.919405" />
  <path
     transform="matrix(0.505289,-0.122517,0.122517,0.505289,213.42143,-19.022338)"
     d="M 48.171509,257.87967 A 4.5160789,4.5160789 0 1 1 39.139351,257.87967 A 4.5160789,4.5160789 0 1 1 48.171509,257.87967 z"
     sodipodi:ry="4.5160789"
     sodipodi:rx="4.5160789"
     sodipodi:cy="257.87967"
     sodipodi:cx="43.65543"
     id="path2417"
     style="opacity:0.78915698;fill:#eeeeee;fill-opacity:1;stroke:#000000;stroke-width:1;stroke-miterlimit:4;stroke-dasharray:none;stroke-opacity:1"
     sodipodi:type="arc"
     inkscape:export-filename="/home/maidis/Desktop/rect4268.png"
     inkscape:export-xdpi="18.919405"
     inkscape:export-ydpi="18.919405" />
  <path
     style="opacity:0.5;fill:#eeeeee;fill-opacity:1;stroke:none;stroke-opacity:1"
     d="M 264.19849,115.64953 L 488.04552,91.709542 L 481.62949,94.864747 L 270.92347,117.23831 L 264.19849,115.64953 z"
     id="path2419"
     sodipodi:nodetypes="ccccc"
     inkscape:export-xdpi="18.919405"
     inkscape:export-ydpi="18.919405" />
</svg>
