<?xml version="1.0" encoding="utf-8"?>
<!-- Generator: Adobe Illustrator 15.1.0, SVG Export Plug-In . SVG Version: 6.00 Build 0)  -->
<!DOCTYPE svg PUBLIC "-//W3C//DTD SVG 1.1//EN" "http://www.w3.org/Graphics/SVG/1.1/DTD/svg11.dtd">
<svg version="1.1" id="Layer_1" xmlns="http://www.w3.org/2000/svg" xmlns:xlink="http://www.w3.org/1999/xlink" x="0px" y="0px"
	 width="500px" height="500px" viewBox="0 0 500 500" enable-background="new 0 0 500 500" xml:space="preserve">
<g>
	<path fill="#010101" d="M388.782,145.544c-12.374,0-24.747,2.118-36.452,6.187c-23.935-57.688-81.312-96.774-144.664-96.774
		c-78.955,0-145.504,59.423-155.254,136.841C20.722,207.141,0,239.611,0,275.239C0,326.389,41.607,368,92.754,368h34.202v-28.537
		H92.754c-35.409,0-64.217-28.808-64.217-64.224c0-26.79,16.944-50.995,42.161-60.231l8.69-3.185l0.637-9.236
		c4.586-66.78,60.653-119.093,127.641-119.093c56.186,0,106.62,37.582,122.64,91.4l4.937,16.585l15.352-8.002
		c11.943-6.234,24.795-9.396,38.188-9.396c45.593,0,82.681,37.097,82.681,82.697c0,45.597-37.088,82.685-82.681,82.685h-24.222V368
		h24.222C450.108,368,500,318.108,500,256.778C500,195.444,450.108,145.544,388.782,145.544z"/>
	<polygon fill="#010101" points="287.883,223.687 205.644,223.687 205.644,348.779 150.505,348.779 246.762,445.044 
		343.015,348.779 287.883,348.779 	"/>
</g>
</svg>
